<?xml version="1.0" encoding="UTF-8"?>
<svg version="1.1" xmlns="http://www.w3.org/2000/svg" width="512" height="512">
<path d="M0 0 C1.61258698 0.70184921 1.61258698 0.70184921 3.25775146 1.4178772 C6.78010437 2.95620591 10.28817359 4.52456492 13.796875 6.09375 C16.2571075 7.17890871 18.72020145 8.25748587 21.18359375 9.33544922 C25.02496232 11.01774607 28.86545438 12.70189013 32.70153809 14.39620972 C41.2525091 18.17054091 49.83462261 21.86335784 58.44741058 25.49434662 C60.39184911 26.31424021 62.33559381 27.13575632 64.27911377 27.95782471 C71.73851491 31.11283047 71.73851491 31.11283047 79.20471191 34.25170898 C82.63568131 35.69146876 86.06051801 37.14498569 89.484375 38.6015625 C90.49030701 39.01943024 91.49623901 39.43729797 92.53265381 39.86782837 C107.63669418 46.33745855 107.63669418 46.33745855 110.546875 53.59375 C110.79987466 56.42699069 110.79987466 56.42699069 110.80414391 59.77675915 C110.8105928 61.05409583 110.81704169 62.33143252 110.823686 63.64747638 C110.82074361 65.06797842 110.81760816 66.48848008 110.81430054 67.90898132 C110.81803596 69.41569856 110.82263705 70.92241387 110.82803118 72.42912608 C110.84029027 76.57571133 110.83999729 80.72221606 110.83764243 84.8688153 C110.83723499 89.33863759 110.84826657 93.80843381 110.85775757 98.27824402 C110.87438526 107.03848551 110.87986794 115.7987001 110.88098232 124.55895605 C110.88193211 131.67978353 110.88603892 138.80060211 110.89238358 145.92142677 C110.91000201 166.10574312 110.91922169 186.29003818 110.91772263 206.47436228 C110.91760276 208.10728366 110.91760276 208.10728366 110.91748047 209.77319336 C110.91739871 210.86313557 110.91731695 211.95307777 110.91723271 213.07604853 C110.91641998 230.73630109 110.93555275 248.39646832 110.9637572 266.0566962 C110.99248194 284.18566132 111.00629767 302.31458483 111.00456965 320.4435733 C111.00390553 330.62332975 111.00940716 340.8029968 111.03092575 350.98273277 C111.0491323 359.65133954 111.05348932 368.31981638 111.0399069 376.98843398 C111.03337416 381.41082462 111.03327097 385.83296598 111.0506134 390.25533295 C111.0663361 394.30637273 111.06348887 398.35696542 111.04604514 402.40799425 C111.04297342 403.87101501 111.04661419 405.33406907 111.05776529 406.79705056 C111.11580358 414.95377817 110.76700979 421.48980239 106.546875 428.59375 C106.1686086 429.24583819 105.7903422 429.89792637 105.40061319 430.56977481 C101.20861286 437.46013346 94.15666885 441.46400844 86.546875 443.59375 C83.85732051 443.77716061 81.27418226 443.8662306 78.58726788 443.85101891 C77.40581974 443.85627802 77.40581974 443.85627802 76.20050398 443.86164337 C73.55715751 443.87095874 70.9140313 443.8660337 68.27067566 443.86117554 C66.35800237 443.86491172 64.4453306 443.86951312 62.53266126 443.87490618 C57.27324516 443.88715543 52.01389258 443.88687345 46.75446546 443.88451743 C41.08357915 443.88410975 35.41271334 443.8951437 29.74183655 443.90463257 C18.63033451 443.92125393 7.51885368 443.92674262 -3.59265975 443.92785732 C-12.62324055 443.92880723 -21.65381434 443.93291463 -30.68439293 443.93925858 C-52.11421799 443.95400688 -73.54403613 443.96630798 -94.97386646 443.96526146 C-95.65919056 443.9652303 -96.34451466 443.96519914 -97.05060616 443.96516704 C-100.5241084 443.96500083 -103.99761064 443.96480275 -107.47111288 443.96459763 C-108.16096207 443.96455774 -108.85081126 443.96451785 -109.56156498 443.96447675 C-110.95660809 443.96439587 -112.35165121 443.96431228 -113.74669433 443.96422596 C-135.45168043 443.96300043 -157.15660405 443.97801407 -178.86157227 444.00537109 C-203.24741098 444.03609444 -227.63319821 444.05327811 -252.01905936 444.05144465 C-264.93074773 444.05078023 -277.84236562 444.05629525 -290.75403786 444.07780075 C-301.74654818 444.09599219 -312.73895608 444.10037658 -323.73147491 444.0867819 C-329.34066636 444.08024211 -334.94966121 444.08017171 -340.55883408 444.0974884 C-345.69410984 444.11317914 -350.82903246 444.11039628 -355.9642994 444.09292014 C-357.82160458 444.08984145 -359.67893586 444.09351524 -361.53621028 444.10464029 C-379.25376268 444.20373564 -379.25376268 444.20373564 -386.453125 439.59375 C-387.10043463 439.2154836 -387.74774426 438.8372172 -388.41466933 438.44748819 C-395.24487704 434.32694602 -399.48474077 427.1787328 -401.453125 419.59375 C-401.75251824 415.52683151 -401.73144184 411.46820231 -401.72055054 407.39176941 C-401.72508165 406.15159303 -401.72961276 404.91141666 -401.73428118 403.63365918 C-401.74474369 400.19844289 -401.74625236 396.76343614 -401.74389243 393.32821882 C-401.74348392 389.62053581 -401.75452668 385.91288392 -401.76400757 382.20521545 C-401.78061097 374.94386654 -401.78611681 367.6825501 -401.78723232 360.42118379 C-401.7881831 354.51798555 -401.79229486 348.61479802 -401.79863358 342.71160316 C-401.81624408 325.97002896 -401.82547273 309.22848037 -401.82397263 292.48689684 C-401.82389272 291.58460711 -401.8238128 290.68231738 -401.82373047 289.75268555 C-401.82364871 288.84929246 -401.82356695 287.94589937 -401.82348271 287.01513074 C-401.82266983 272.37486563 -401.84180841 257.73470342 -401.8700072 243.09446808 C-401.89874197 228.05715232 -401.91254717 213.01988673 -401.91081965 197.98254281 C-401.91015596 189.5421475 -401.91563906 181.10186005 -401.93717575 172.66148949 C-401.95539535 165.475134 -401.95972852 158.28893528 -401.9461569 151.10256668 C-401.93963116 147.437593 -401.93949545 143.77292 -401.9568634 140.10797501 C-401.97551707 136.13073833 -401.96302921 132.15393964 -401.94760132 128.17668152 C-401.95788844 127.02414153 -401.96817557 125.87160154 -401.97877443 124.68413609 C-401.89698075 115.14048095 -399.13003969 106.64160439 -392.453125 99.59375 C-384.64738712 93.32024955 -377.80275486 91.28822841 -367.92398071 91.35324097 C-366.49521467 91.35067769 -366.49521467 91.35067769 -365.03758466 91.34806263 C-361.85001215 91.34477177 -358.66265074 91.35576491 -355.47509766 91.36669922 C-353.18852748 91.36726342 -350.90195693 91.3669466 -348.61538696 91.36581421 C-342.4092969 91.36524004 -336.20328404 91.3770048 -329.99721193 91.39096212 C-323.51095247 91.40345875 -317.02469127 91.40463914 -310.53842163 91.40701294 C-299.65206525 91.41252424 -288.7657374 91.42501942 -277.87939453 91.44287109 C-266.66780743 91.46123696 -255.45622802 91.47539001 -244.24462891 91.48388672 C-243.20751896 91.48467489 -243.20751896 91.48467489 -242.14945729 91.48547898 C-238.68077661 91.48808911 -235.21209588 91.49061651 -231.74341512 91.49310279 C-202.97996634 91.51382679 -174.21654635 91.54919385 -145.453125 91.59375 C-145.47407227 90.47403809 -145.49501953 89.35432617 -145.51660156 88.20068359 C-145.58922926 84.02991623 -145.63500711 79.85920432 -145.67285156 75.68798828 C-145.69291533 73.88580919 -145.72017313 72.08369479 -145.75488281 70.28173828 C-145.80363329 67.68505864 -145.82614582 65.08924271 -145.84375 62.4921875 C-145.86439514 61.6919516 -145.88504028 60.8917157 -145.90631104 60.06723022 C-145.90841944 54.76114836 -144.93266777 51.82811475 -141.453125 47.59375 C-136.16544842 43.05949245 -129.18571693 40.56857906 -122.828125 37.91796875 C-121.79207123 37.47911346 -120.75601746 37.04025818 -119.68856812 36.58810425 C-116.27957479 35.14569599 -112.86661457 33.71298217 -109.453125 32.28125 C-105.21608744 30.49796408 -100.97997833 28.71248749 -96.74470139 26.92502403 C-95.48784065 26.3946953 -94.2308433 25.86469022 -92.97371292 25.33500099 C-83.87544069 21.50009883 -74.81799181 17.5806104 -65.78508759 13.59429741 C-61.97920042 11.9170323 -58.16833457 10.2510958 -54.35775375 8.58452702 C-51.30394958 7.24743332 -48.25558508 5.90014856 -45.21240234 4.53890991 C-41.80886679 3.01766209 -38.39438633 1.5239657 -34.9765625 0.03515625 C-33.98490082 -0.41683136 -32.99323914 -0.86881897 -31.9715271 -1.33450317 C-20.35951385 -6.32151391 -11.29219161 -5.14356915 0 0 Z " fill="#2196F3" transform="translate(401.453125,36.40625)"/>
<path d="M0 0 C1.61258698 0.70184921 1.61258698 0.70184921 3.25775146 1.4178772 C6.78010437 2.95620591 10.28817359 4.52456492 13.796875 6.09375 C16.2571075 7.17890871 18.72020145 8.25748587 21.18359375 9.33544922 C25.02496232 11.01774607 28.86545438 12.70189013 32.70153809 14.39620972 C41.2525091 18.17054091 49.83462261 21.86335784 58.44741058 25.49434662 C60.39184911 26.31424021 62.33559381 27.13575632 64.27911377 27.95782471 C71.73851491 31.11283047 71.73851491 31.11283047 79.20471191 34.25170898 C82.63568131 35.69146876 86.06051801 37.14498569 89.484375 38.6015625 C90.49030701 39.01943024 91.49623901 39.43729797 92.53265381 39.86782837 C98.82389845 42.56260574 105.65093014 45.53673553 109.74530029 51.2726593 C110.9302763 54.70395119 110.82469708 58.08210506 110.80566406 61.66918945 C110.81092102 62.88748947 110.81092102 62.88748947 110.81628418 64.13040161 C110.82509937 66.82269808 110.8192427 69.51473194 110.8125 72.20703125 C110.81384918 74.09677683 110.81579182 75.98652208 110.81829834 77.87626648 C110.82125135 81.85170777 110.81695538 85.82705937 110.80761719 89.80249023 C110.79636873 94.82974744 110.80287221 99.85678961 110.81450176 104.88403893 C110.91642854 156.76639082 110.91642854 156.76639082 105.546875 177.59375 C105.19302642 179.07268158 104.84023159 180.55186553 104.48828125 182.03125 C98.86756353 205.09181891 89.66712491 227.11344455 74.546875 245.59375 C73.91007813 246.43164062 73.27328125 247.26953125 72.6171875 248.1328125 C62.00954047 261.79480147 49.19978933 274.12038766 35.2578125 284.3359375 C33.49512572 285.63179399 31.75477164 286.95400651 30.015625 288.28125 C-6.84497019 316.16101136 -6.84497019 316.16101136 -19.86279297 315.98681641 C-24.85814275 315.22880386 -28.80898823 312.44596156 -33.015625 309.78125 C-33.97654053 309.19174561 -34.93745605 308.60224121 -35.92749023 307.99487305 C-48.96857824 299.92088776 -61.48860178 291.1900995 -73.453125 281.59375 C-74.47535156 280.77777344 -75.49757813 279.96179688 -76.55078125 279.12109375 C-107.11518171 254.23756099 -127.001526 224.17466435 -138.453125 186.59375 C-138.66598145 185.90732422 -138.87883789 185.22089844 -139.09814453 184.51367188 C-146.96410502 158.58193399 -145.96159922 130.87059286 -145.89916992 104.08251953 C-145.88752205 98.83283258 -145.90819623 93.58380267 -145.93708706 88.33420181 C-145.95541038 84.25581626 -145.95516729 80.17759086 -145.94944954 76.0991745 C-145.94929677 74.16152758 -145.95530384 72.22386952 -145.96774101 70.28626251 C-145.98262671 67.59568423 -145.97200318 64.90635936 -145.95483398 62.21582031 C-145.96450195 61.42732193 -145.97416992 60.63882355 -145.98413086 59.82643127 C-145.91492679 54.64455937 -144.88296561 51.69583508 -141.453125 47.59375 C-136.16544842 43.05949245 -129.18571693 40.56857906 -122.828125 37.91796875 C-121.79207123 37.47911346 -120.75601746 37.04025818 -119.68856812 36.58810425 C-116.27957479 35.14569599 -112.86661457 33.71298217 -109.453125 32.28125 C-105.21608744 30.49796408 -100.97997833 28.71248749 -96.74470139 26.92502403 C-95.48784065 26.3946953 -94.2308433 25.86469022 -92.97371292 25.33500099 C-83.87544069 21.50009883 -74.81799181 17.5806104 -65.78508759 13.59429741 C-61.97920042 11.9170323 -58.16833457 10.2510958 -54.35775375 8.58452702 C-51.30394958 7.24743332 -48.25558508 5.90014856 -45.21240234 4.53890991 C-41.80886679 3.01766209 -38.39438633 1.5239657 -34.9765625 0.03515625 C-33.98490082 -0.41683136 -32.99323914 -0.86881897 -31.9715271 -1.33450317 C-20.35951385 -6.32151391 -11.29219161 -5.14356915 0 0 Z " fill="#009688" transform="translate(401.453125,36.40625)"/>
<path d="M0 0 C1.23275553 -0.00256327 1.23275553 -0.00256327 2.49041522 -0.00517833 C5.23577531 -0.00846452 7.98088934 0.00251609 10.72622681 0.01345825 C12.69753005 0.01402255 14.66883372 0.01370543 16.64013672 0.01257324 C21.98675521 0.01199947 27.33328394 0.0237578 32.67988157 0.03772116 C38.26926945 0.0502244 43.85865938 0.0513987 49.44805908 0.05377197 C60.03017014 0.05998793 70.61223986 0.07640034 81.19433272 0.09647095 C93.24260444 0.11882633 105.29087815 0.12982248 117.33916545 0.13986182 C142.12136637 0.16076644 166.9035306 0.1959447 191.68569946 0.24050903 C191.69420268 0.86161151 191.7027059 1.48271399 191.71146679 2.12263775 C191.80290152 8.68981456 191.90522306 15.25676254 192.01338196 21.82368469 C192.05218857 24.26226229 192.08837867 26.70088318 192.12171936 29.13954163 C192.47065385 54.40921497 194.14402808 78.75912976 200.68569946 103.24050903 C201.01308105 104.5030249 201.01308105 104.5030249 201.34707642 105.79104614 C206.08099257 123.8157679 213.87911155 140.26326193 222.78115845 156.5708313 C223.43762485 157.78259209 224.06936962 159.00784936 224.68569946 160.24050903 C139.87569946 160.24050903 55.06569946 160.24050903 -32.31430054 160.24050903 C-32.39680054 137.98613403 -32.47930054 115.73175903 -32.56430054 92.80300903 C-32.60071655 85.78478882 -32.63713257 78.7665686 -32.6746521 71.53567505 C-32.69271851 62.94351196 -32.69271851 62.94351196 -32.69607544 58.91688538 C-32.69979132 56.11381784 -32.71473762 53.31105553 -32.73660278 50.5080719 C-32.76418114 46.92483905 -32.77223936 43.34204559 -32.76658964 39.75871646 C-32.76832365 37.8336995 -32.78970458 35.90873034 -32.81201553 33.9838419 C-32.77784617 26.82546405 -31.91665681 21.46699106 -28.31430054 15.24050903 C-27.93598209 14.58655938 -27.55766365 13.93260973 -27.16788101 13.25884342 C-21.24320613 3.55112686 -10.8741813 -0.08327656 0 0 Z " fill="#455A64" transform="translate(32.314300537109375,127.75949096679688)"/>
<path d="M0 0 C10.56 0 21.12 0 32 0 C32.05607422 5.28644531 32.05607422 5.28644531 32.11328125 10.6796875 C32.1598325 14.19178589 32.21094204 17.70379151 32.26245117 21.21582031 C32.29517955 23.6086639 32.32336251 26.00157509 32.34643555 28.39453125 C32.56770301 50.7660837 33.38436453 73.47285623 40 95 C40.2587793 95.8780127 40.51755859 96.75602539 40.78417969 97.66064453 C46.94211461 118.36452629 55.70311726 136.93530205 69 154 C69.66902344 154.89074219 70.33804688 155.78148437 71.02734375 156.69921875 C80.68915938 169.10565762 92.3568912 180.6681816 105 190 C106.18884696 190.91491909 107.37622255 191.83175176 108.5625 192.75 C117.36044915 199.51537991 126.40074228 205.77737405 135.82373047 211.64013672 C137.30772947 212.56742799 138.78571922 213.50438927 140.25830078 214.44970703 C142.49312175 215.88319395 144.74367678 217.28816376 147 218.6875 C148.0043811 219.33936279 148.0043811 219.33936279 149.02905273 220.00439453 C153.99644841 223.01572049 158.22575849 224.13349776 164 223 C167.54369315 221.6642787 170.74214955 219.92131282 174 218 C174.77408203 217.5457666 175.54816406 217.0915332 176.34570312 216.62353516 C178.67035713 215.22033443 180.96333429 213.7767242 183.25 212.3125 C184.48206177 211.52758179 184.48206177 211.52758179 185.73901367 210.72680664 C202.59858515 199.90246593 218.52016026 187.86214817 233 174 C233.50273437 173.52449707 234.00546875 173.04899414 234.5234375 172.55908203 C245.36347039 162.26586552 254.46007104 150.95074846 262 138 C262.37624512 137.3591748 262.75249023 136.71834961 263.14013672 136.05810547 C278.60775045 109.3625135 285.35194035 79.57584353 287 49 C287.33 49 287.66 49 288 49 C288.23460585 63.10001193 288.40976143 77.19971711 288.51812172 91.3012867 C288.57014958 97.85047561 288.64063533 104.39834673 288.75439453 110.94677734 C288.86363484 117.27521446 288.9229643 123.60239012 288.94877243 129.93169785 C288.96714615 132.33740964 289.00302629 134.74305803 289.05730057 137.14822769 C289.38432602 152.251099 288.60056594 161.85881839 278 173 C276.5490294 174.82269078 275.10918366 176.65437465 273.6875 178.5 C265.78594984 187.97065232 257.49977221 197.11467924 248 205 C247.02160156 205.86625 246.04320312 206.7325 245.03515625 207.625 C230.78040777 220.22304762 215.16441507 231.00428675 199 241 C198.21415527 241.48807129 197.42831055 241.97614258 196.61865234 242.47900391 C181.21999085 251.96241947 168.07105744 258.10159982 149.4609375 255.66796875 C126.71233628 250.23488358 101.75272544 229.65982851 84 215 C83.48405273 214.57734863 82.96810547 214.15469727 82.43652344 213.71923828 C71.29576663 204.56861667 60.21058447 195.12862375 51 184 C50.14792969 183.02417969 49.29585938 182.04835938 48.41796875 181.04296875 C29.54694809 159.38180757 17.45893232 134.2565597 9 107 C8.67 105.948125 8.34 104.89625 8 103.8125 C0.55362019 78.37070231 -0.47754754 51.17264331 -0.1875 24.875 C-0.17239161 22.44011266 -0.15871433 20.005216 -0.14648438 17.5703125 C-0.11664129 11.71310909 -0.05784414 5.85725461 0 0 Z " fill="#F8F9F9" transform="translate(224,128)"/>
<path d="M0 0 C1.23275553 -0.00256327 1.23275553 -0.00256327 2.49041522 -0.00517833 C5.23577531 -0.00846452 7.98088934 0.00251609 10.72622681 0.01345825 C12.69753005 0.01402255 14.66883372 0.01370543 16.64013672 0.01257324 C21.98675521 0.01199947 27.33328394 0.0237578 32.67988157 0.03772116 C38.26926945 0.0502244 43.85865938 0.0513987 49.44805908 0.05377197 C60.03017014 0.05998793 70.61223986 0.07640034 81.19433272 0.09647095 C93.24260444 0.11882633 105.29087815 0.12982248 117.33916545 0.13986182 C142.12137164 0.16076644 166.90352119 0.19744416 191.68569946 0.24050903 C192.01569946 21.36050903 192.34569946 42.48050903 192.68569946 64.24050903 C118.43569946 64.24050903 44.18569946 64.24050903 -32.31430054 64.24050903 C-32.31430054 17.74050903 -32.31430054 17.74050903 -23.31430054 8.24050903 C-15.99097979 2.35472902 -9.43239624 -0.0722351 0 0 Z " fill="#2196F3" transform="translate(32.314300537109375,127.75949096679688)"/>
<path d="M0 0 C6.2317668 0.62317668 10.15012795 3.57514395 14.25 8.1875 C16.07551777 12.06672525 16.52953759 15.20558753 15.75 19.375 C13.48791853 25.37406182 9.79237957 30.15585301 5.6875 35 C4.51852719 36.40802118 3.3505751 37.81689034 2.18359375 39.2265625 C1.60335449 39.92426758 1.02311523 40.62197266 0.42529297 41.34082031 C-2.02050695 44.31056746 -4.38807474 47.33842609 -6.75 50.375 C-11.23081117 56.1160137 -15.80958931 61.77196155 -20.4140625 67.4140625 C-23.90530276 71.69951855 -27.3480925 76.01836764 -30.75 80.375 C-36.34017699 87.53141705 -42.04841894 94.59098233 -47.80664062 101.61279297 C-48.75814706 102.77449349 -49.70489048 103.94011394 -50.64648438 105.10986328 C-54.08700256 109.34149617 -56.85828694 111.75087436 -62.3515625 112.76171875 C-67.93851052 113.19369927 -70.89987493 111.68485542 -75.20233154 108.28378296 C-78.83662713 104.89598771 -81.4500094 100.90563127 -84.1640625 96.76953125 C-84.78219818 95.84967941 -85.40033386 94.92982758 -86.03720093 93.98210144 C-87.33589985 92.04402521 -88.62809304 90.10157519 -89.9140625 88.1550293 C-91.86345543 85.20497064 -93.8320742 82.26855411 -95.8046875 79.33398438 C-97.07146331 77.4382685 -98.33712494 75.54180753 -99.6015625 73.64453125 C-100.17983795 72.77955521 -100.7581134 71.91457916 -101.35391235 71.02339172 C-113.50410393 52.596348 -113.50410393 52.596348 -112.25 44.375 C-110.39143173 39.10905656 -107.64685804 36.58104232 -103.25 33.375 C-97.92475167 31.59991722 -93.80811756 31.7462859 -88.6875 33.8125 C-80.89218022 38.84661241 -75.83848612 48.74426905 -70.8125 56.3125 C-69.85827148 57.72885742 -69.85827148 57.72885742 -68.88476562 59.17382812 C-68.28470703 60.07423828 -67.68464844 60.97464844 -67.06640625 61.90234375 C-66.25345093 63.12038696 -66.25345093 63.12038696 -65.42407227 64.36303711 C-64.25 66.375 -64.25 66.375 -64.25 68.375 C-60.22629317 65.41470141 -57.23996395 62.08191205 -54.25 58.125 C-53.28255513 56.86878547 -52.31374913 55.61361829 -51.34375 54.359375 C-50.83972656 53.70646484 -50.33570313 53.05355469 -49.81640625 52.38085938 C-47.17910457 49.00366633 -44.4629248 45.69151235 -41.75 42.375 C-37.66412656 37.36724761 -33.61292089 32.33615831 -29.625 27.25 C-29.18260986 26.68676025 -28.74021973 26.12352051 -28.28442383 25.54321289 C-25.94929268 22.5642021 -23.6324555 19.57230412 -21.33203125 16.56640625 C-20.6052417 15.624021 -20.6052417 15.624021 -19.86376953 14.66259766 C-18.94636264 13.4725755 -18.03413087 12.27853616 -17.12841797 11.07958984 C-13.90620189 6.91308029 -10.27112447 2.64192317 -5.3125 0.5625 C-3.53908096 0.40128009 -1.76899522 0.20411483 0 0 Z " fill="#F7F9F8" transform="translate(432.25,127.625)"/>
<path d="M0 0 C0.6930574 -0.0049649 1.38611481 -0.00992981 2.10017395 -0.01504517 C4.39255773 -0.02964735 6.68487228 -0.03646588 8.97729492 -0.04199219 C10.57289125 -0.0477457 12.16848756 -0.05350341 13.76408386 -0.05926514 C17.11062949 -0.06976991 20.45715114 -0.07561585 23.80371094 -0.07910156 C28.08428318 -0.08458206 32.36453666 -0.10860259 36.64500904 -0.13707352 C39.9419191 -0.15573209 43.2387529 -0.16090723 46.53571129 -0.16243744 C48.11331612 -0.16545776 49.69091981 -0.17346532 51.26847267 -0.18662262 C53.48000691 -0.20374934 55.69076942 -0.20178707 57.90234375 -0.1953125 C59.15904373 -0.19895813 60.41574371 -0.20260376 61.71052551 -0.20635986 C66.12584738 0.26604833 69.49433894 1.65530123 72.78979492 4.66113281 C76.74799733 9.74457671 77.80212592 13.7628079 77.14526367 20.16113281 C75.2866954 25.42707625 72.54212172 27.95509049 68.14526367 31.16113281 C64.67587776 32.31759478 61.95166292 32.3023358 58.29052734 32.32226562 C57.25094124 32.32971298 57.25094124 32.32971298 56.19035339 32.33731079 C53.89796962 32.35191297 51.60565506 32.35873151 49.31323242 32.36425781 C47.71763609 32.37001132 46.12203978 32.37576903 44.52644348 32.38153076 C41.17989785 32.39203553 37.8333762 32.39788147 34.48681641 32.40136719 C30.20624416 32.40684768 25.92599068 32.43086822 21.6455183 32.45933914 C18.34860825 32.47799772 15.05177444 32.48317285 11.75481606 32.48470306 C10.17721122 32.48772338 8.59960753 32.49573094 7.02205467 32.50888824 C4.81052043 32.52601496 2.59975793 32.52405269 0.38818359 32.51757812 C-0.86851639 32.52122375 -2.12521637 32.52486938 -3.41999817 32.52862549 C-7.83532003 32.0562173 -11.2038116 30.6669644 -14.49926758 27.66113281 C-18.45746999 22.57768892 -19.51159858 18.55945772 -18.85473633 12.16113281 C-16.99616806 6.89518937 -14.25159437 4.36717514 -9.85473633 1.16113281 C-6.38535042 0.00467084 -3.66113558 0.01992983 0 0 Z " fill="#F8F9F9" transform="translate(82.854736328125,351.8388671875)"/>
</svg>
